<?xml version="1.0" encoding="UTF-8"?>
<svg width="699px" height="130px" viewBox="0 0 699 130" version="1.1" xmlns="http://www.w3.org/2000/svg" xmlns:xlink="http://www.w3.org/1999/xlink">
    <!-- Generator: Sketch 49.1 (51147) - http://www.bohemiancoding.com/sketch -->
    <title>Group</title>
    <desc>Created with Sketch.</desc>
    <defs>
        <path d="M442.512,120.712 C440.303989,123.880016 437.088021,125.464 432.864,125.464 C429.023981,125.464 425.040021,124.216012 420.912,121.72 C417.167981,119.511989 415.056002,117.352011 414.576,115.24 C414.383999,114.471996 414.288,113.752003 414.288,113.08 C414.288,111.543992 414.935994,109.81601 416.232,107.896 C417.528006,105.97599 418.128,104.296007 418.032,102.856 L413.712,54.472 L388.944,110.344 C388.655999,111.112004 388.512,112.023995 388.512,113.08 C388.512,113.848004 388.631999,115.047992 388.872,116.68 C389.112001,118.312008 389.232,119.559996 389.232,120.424 C389.232,122.632011 388.368009,124.311994 386.64,125.464 C384.143988,127.192009 381.216017,128.056 377.856,128.056 C374.495983,128.056 371.448014,127.168009 368.712,125.392 C365.975986,123.615991 364.272003,121.288014 363.6,118.408 C363.407999,117.543996 363.312,116.776003 363.312,116.104 C363.312,115.431997 363.407999,114.616005 363.6,113.656 C363.792001,112.695995 363.888,111.976002 363.888,111.496 C363.888,110.919997 363.792001,110.344003 363.6,109.768 L342.864,54.472 L344.88,106.6 C344.976,107.944007 345.311997,109.839988 345.888,112.288 C346.464003,114.736012 346.752,116.535994 346.752,117.688 C346.752,121.240018 344.112026,124.02399 338.832,126.04 C338.159997,126.232001 337.344005,126.328 336.384,126.328 C333.407985,126.328 330.336016,125.32001 327.168,123.304 C323.519982,121.095989 321.168005,118.216018 320.112,114.664 C319.919999,114.087997 319.824,113.560002 319.824,113.08 C319.824,112.119995 320.399994,111.040006 321.552,109.84 C322.704006,108.639994 323.28,107.560005 323.28,106.6 L321.552,24.52 C321.552,23.1759933 321.072005,21.4720103 320.112,19.408 C319.151995,17.3439897 318.672,15.7840053 318.672,14.728 C318.672,13.0959918 319.535991,11.3440094 321.264,9.472 C322.992009,7.59999064 326.015978,6.664 330.336,6.664 C336.672032,6.664 341.711981,8.19998464 345.456,11.272 C347.568011,13.0000086 348.624,14.8239904 348.624,16.744 C348.624,17.0320014 348.576,17.4639971 348.48,18.04 L348.48,19.336 C348.48,20.2000043 348.623999,20.9679966 348.912,21.64 L377.424,90.76 L409.392,17.32 C409.776002,16.4559957 409.968,15.4480058 409.968,14.296 C409.968,13.9119981 409.92,13.3360038 409.824,12.568 L409.824,10.84 C409.824,8.63198896 410.83199,6.76000768 412.848,5.224 C414.480008,3.97599376 416.639987,3.352 419.328,3.352 C423.456021,3.352 427.463981,4.59998752 431.352,7.096 C435.240019,9.59201248 437.136,12.4239842 437.04,15.592 C436.944,17.1280077 436.224007,18.399995 434.88,19.408 C433.535993,20.416005 432.912,21.3519957 433.008,22.216 L439.056,107.176 C439.152,108.136005 439.919993,109.791988 441.36,112.144 C442.800007,114.496012 443.52,116.391993 443.52,117.832 C443.52,118.792005 443.184003,119.751995 442.512,120.712 Z M518.688,10.264 C519.744005,12.1840096 520.272,13.7679938 520.272,15.016 L518.544,20.2 C518.448,31.0480542 518.304001,41.8479462 518.112,52.6 C517.055995,72.5680998 514.464021,88.55194 510.336,100.552 C504.575971,117.064083 496.080056,125.607997 484.848,126.184 C471.695934,126.856003 462.288028,116.632106 456.624,95.512 C452.68798,81.0159275 450.72,62.7761099 450.72,40.792 C450.72,32.7279597 450.911998,26.7280197 451.296,22.792 C450.335995,19.8159851 449.856,17.3200101 449.856,15.304 C449.856,12.2319846 450.81599,9.68801008 452.736,7.672 C453.984006,6.32799328 456.143985,5.656 459.216,5.656 C462.960019,5.656 466.319985,6.51999136 469.296,8.248 C472.752017,10.2640101 474.575999,12.8559842 474.768,16.024 C474.864,17.6560082 474.360006,19.3839909 473.256,21.208 C472.151994,23.0320091 471.695999,24.5679938 471.888,25.816 C471.503998,27.0640062 471.695996,34.4079328 472.464,47.848 C473.424005,62.9200754 474.671992,75.5439491 476.208,85.72 C478.22401,99.0640667 480.479988,105.688 482.976,105.592 C487.296022,105.399999 490.895986,95.3200998 493.776,75.352 C496.080012,59.3199198 497.232,44.4400686 497.232,30.712 C497.232,28.0239866 497.136001,26.1040058 496.944,24.952 C497.136001,23.7039938 496.416008,21.880012 494.784,19.48 C493.151992,17.079988 492.336,15.0640082 492.336,13.432 C492.336,11.7039914 493.007993,9.92800912 494.352,8.104 C496.36801,5.2239856 500.063973,3.784 505.44,3.784 C511.968033,3.784 516.383988,5.9439784 518.688,10.264 Z M591.408,97.096 C591.408,104.584037 589.032024,111.135972 584.28,116.752 C579.527976,122.368028 573.648035,125.176 566.64,125.176 C552.527929,125.176 542.160033,118.456067 535.536,105.016 C528.335964,100.311976 524.736,96.3280163 524.736,93.064 C524.736,91.4319918 525.74399,90.0880053 527.76,89.032 C531.69602,86.9199894 535.295984,85.864 538.56,85.864 C545.664036,85.864 550.415988,90.0879578 552.816,98.536 C553.968006,100.840012 555.167994,103.143988 556.416,105.448 C557.664006,107.752012 559.343989,108.904 561.456,108.904 C567.120028,108.904 569.952,104.87204 569.952,96.808 C569.952,89.607964 568.656013,84.7600125 566.064,82.264 C564.911994,81.2079947 560.30404,79.0000168 552.24,75.64 C545.807968,72.9519866 540.62402,68.3440326 536.688,61.816 C533.135982,55.8639702 531.312,49.6720322 531.216,43.24 C531.12,32.8719482 533.711974,23.6560403 538.992,15.592 C544.560028,6.9519568 551.471959,2.632 559.728,2.632 C569.328048,2.632 576.335978,6.4719616 580.752,14.152 C583.632014,18.952024 585.263998,24.9039645 585.648,32.008 C586.704005,35.6560182 587.232,38.9679851 587.232,41.944 C587.232,43.8640096 586.992002,45.4479938 586.512,46.696 C585.071993,50.2480178 582.240021,52.024 578.016,52.024 C574.847984,52.024 571.968013,50.8720115 569.376,48.568 C566.495986,46.0719875 564.720003,42.5680226 564.048,38.056 C563.759999,36.5199923 564.071995,34.9840077 564.984,33.448 C565.896005,31.9119923 566.352,31.048001 566.352,30.856 C566.352,30.663999 566.256001,30.472001 566.064,30.28 C566.16,29.7999976 566.208,29.3200024 566.208,28.84 C566.208,25.9599856 564.528017,24.615999 561.168,24.808 C557.903984,25.000001 555.360009,27.1599794 553.536,31.288 C551.903992,34.8400178 551.183999,38.919977 551.376,43.528 C551.664001,51.6880408 557.039948,58.2159755 567.504,63.112 C575.760041,66.9520192 581.471984,70.7439813 584.64,74.488 C589.152023,79.8640269 591.408,87.3999515 591.408,97.096 Z M624.816,119.848 C623.951996,122.248012 621.456021,123.448 617.328,123.448 C616.175994,123.448 614.928007,123.352001 613.584,123.16 C605.711961,121.911994 601.104007,119.560017 599.76,116.104 C599.471999,115.431997 599.328,114.760003 599.328,114.088 C599.328,112.07199 600.431989,110.05601 602.64,108.04 C602.255998,93.639928 601.392007,64.2642218 600.048,19.912 C600.144,18.6639938 599.808004,17.2000084 599.04,15.52 C598.271996,13.8399916 597.888,12.6160038 597.888,11.848 C597.888,10.1199914 598.991989,8.2960096 601.2,6.376 C602.736008,5.03199328 604.895986,4.36 607.68,4.36 C610.848016,4.36 614.207982,5.17599184 617.76,6.808 C621.984021,8.82401008 624.096,11.2719856 624.096,14.152 C624.096,14.8240034 623.08801,17.4159774 621.072,21.928 L622.512,109.192 C622.512,110.344006 622.943996,111.807991 623.808,113.584 C624.672004,115.360009 625.104,116.775995 625.104,117.832 C625.104,118.504003 625.008001,119.175997 624.816,119.848 Z M692.928,90.616 C683.807954,113.368114 674.688046,124.792 665.568,124.888 C654.527945,124.984 646.464025,119.272058 641.376,107.752 C637.43998,98.9199558 635.424,87.3520715 635.328,73.048 C635.232,56.9199194 637.343978,42.2320662 641.664,28.984 C646.656025,13.5279227 653.423957,5.3200048 661.968,4.36 C663.216006,4.26399952 664.415994,4.216 665.568,4.216 C673.53604,4.216 679.679978,7.76796448 684,14.872 C687.168016,20.2480269 689.855989,28.7919414 692.064,40.504 C693.696008,45.2080235 694.512,48.0879947 694.512,49.144 C694.512,52.3120158 692.54402,54.7599914 688.608,56.488 C687.743996,56.8720019 686.736006,57.064 685.584,57.064 C682.799986,57.064 679.728017,56.1520091 676.368,54.328 C672.43198,52.2159894 670.464,49.9120125 670.464,47.416 C670.464,47.0319981 671.135993,45.1600168 672.48,41.8 C672.287999,37.5759789 671.520007,33.568019 670.176,29.776 C668.831993,25.983981 667.296009,23.8960019 665.568,23.512 C662.879987,22.8399966 660.52801,28.1679434 658.512,39.496 C656.783991,48.904047 655.728002,59.2719434 655.344,70.6 C655.055999,79.1440427 655.535994,87.0639635 656.784,94.36 C658.224007,102.712042 660.383986,107.175997 663.264,107.752 C664.992009,108.040001 667.055988,105.880023 669.456,101.272 C671.760012,97.0479789 673.679992,92.0560288 675.216,86.296 C675.023999,85.3359952 674.928,84.4240043 674.928,83.56 C674.928,77.8959717 678.383965,75.064 685.296,75.064 C686.832008,75.064 688.367992,75.2079986 689.904,75.496 C694.608024,76.4560048 696.96,78.8079813 696.96,82.552 C696.96,85.6240154 695.616013,88.3119885 692.928,90.616 Z" id="path-1"></path>
        <filter x="-0.4%" y="-1.2%" width="100.8%" height="102.4%" filterUnits="objectBoundingBox" id="filter-2">
            <feMorphology radius="0.5" operator="dilate" in="SourceAlpha" result="shadowSpreadOuter1"></feMorphology>
            <feOffset dx="0" dy="0" in="shadowSpreadOuter1" result="shadowOffsetOuter1"></feOffset>
            <feColorMatrix values="0 0 0 0 0   0 0 0 0 0   0 0 0 0 0  0 0 0 0.5 0" type="matrix" in="shadowOffsetOuter1"></feColorMatrix>
        </filter>
        <path d="M311.472,19.048 C310.511995,20.4880072 308.520015,21.6399957 305.496,22.504 C302.471985,23.3680043 300.528004,24.5199928 299.664,25.96 L252.72,102.856 L278.064,102.856 C279.408007,102.856 280.991991,102.064008 282.816,100.48 C284.640009,98.8959921 286.415991,98.1519995 288.144,98.248 C292.368021,98.5360014 295.871986,100.119986 298.656,103 C301.440014,105.880014 302.832,109.047983 302.832,112.504 C302.832,116.44002 301.104017,119.511989 297.648,121.72 C296.783996,122.296003 295.824005,122.584 294.768,122.584 C293.615994,122.584 291.672014,122.128005 288.936,121.216 C286.199986,120.303995 284.016008,119.848 282.384,119.848 L244.368,119.848 C243.311995,119.848 241.77601,120.255996 239.76,121.072 C237.74399,121.888004 236.304004,122.200001 235.44,122.008 C232.463985,121.431997 229.96801,119.512016 227.952,116.248 C226.223991,113.271985 225.36,110.056017 225.36,106.6 C225.36,104.775991 225.671997,103.216006 226.296,101.92 C226.920003,100.623994 228.455988,99.5680041 230.904,98.752 C233.352012,97.9359959 234.959996,96.9040062 235.728,95.656 L279.216,23.656 L255.6,26.824 C254.639995,26.9200005 253.344008,27.3759959 251.712,28.192 C250.079992,29.0080041 248.736005,29.416 247.68,29.416 C246.719995,29.416 245.616006,29.1280029 244.368,28.552 C240.047978,26.4399894 237.888,22.3120307 237.888,16.168 C237.888,13.1919851 238.559993,11.0320067 239.904,9.688 C241.248007,8.34399328 242.783991,7.672 244.512,7.672 C245.184003,7.672 246.47999,7.86399808 248.4,8.248 C250.32001,8.63200192 251.855994,8.77600048 253.008,8.68 L291.888,5.224 C293.040006,5.12799952 294.431992,4.3600072 296.064,2.92 C297.696008,1.4799928 299.183993,0.80799952 300.528,0.904 C302.928012,1.09600096 305.495986,2.91998272 308.232,6.376 C310.968014,9.83201728 312.336,13.0479851 312.336,16.024 C312.336,17.1760058 312.048003,18.1839957 311.472,19.048 Z" id="path-3"></path>
        <filter x="-1.7%" y="-1.2%" width="103.4%" height="102.5%" filterUnits="objectBoundingBox" id="filter-4">
            <feMorphology radius="0.5" operator="dilate" in="SourceAlpha" result="shadowSpreadOuter1"></feMorphology>
            <feOffset dx="0" dy="0" in="shadowSpreadOuter1" result="shadowOffsetOuter1"></feOffset>
            <feColorMatrix values="0 0 0 0 0   0 0 0 0 0   0 0 0 0 0  0 0 0 0.5 0" type="matrix" in="shadowOffsetOuter1"></feColorMatrix>
        </filter>
        <path d="M217.152,120.712 C214.943989,123.880016 211.728021,125.464 207.504,125.464 C203.663981,125.464 199.680021,124.216012 195.552,121.72 C191.807981,119.511989 189.696002,117.352011 189.216,115.24 C189.023999,114.471996 188.928,113.752003 188.928,113.08 C188.928,111.543992 189.575994,109.81601 190.872,107.896 C192.168006,105.97599 192.768,104.296007 192.672,102.856 L188.352,54.472 L163.584,110.344 C163.295999,111.112004 163.152,112.023995 163.152,113.08 C163.152,113.848004 163.271999,115.047992 163.512,116.68 C163.752001,118.312008 163.872,119.559996 163.872,120.424 C163.872,122.632011 163.008009,124.311994 161.28,125.464 C158.783988,127.192009 155.856017,128.056 152.496,128.056 C149.135983,128.056 146.088014,127.168009 143.352,125.392 C140.615986,123.615991 138.912003,121.288014 138.24,118.408 C138.047999,117.543996 137.952,116.776003 137.952,116.104 C137.952,115.431997 138.047999,114.616005 138.24,113.656 C138.432001,112.695995 138.528,111.976002 138.528,111.496 C138.528,110.919997 138.432001,110.344003 138.24,109.768 L117.504,54.472 L119.52,106.6 C119.616,107.944007 119.951997,109.839988 120.528,112.288 C121.104003,114.736012 121.392,116.535994 121.392,117.688 C121.392,121.240018 118.752026,124.02399 113.472,126.04 C112.799997,126.232001 111.984005,126.328 111.024,126.328 C108.047985,126.328 104.976016,125.32001 101.808,123.304 C98.1599818,121.095989 95.8080053,118.216018 94.752,114.664 C94.559999,114.087997 94.464,113.560002 94.464,113.08 C94.464,112.119995 95.0399942,111.040006 96.192,109.84 C97.3440058,108.639994 97.92,107.560005 97.92,106.6 L96.192,24.52 C96.192,23.1759933 95.7120048,21.4720103 94.752,19.408 C93.7919952,17.3439897 93.312,15.7840053 93.312,14.728 C93.312,13.0959918 94.1759914,11.3440094 95.904,9.472 C97.6320086,7.59999064 100.655978,6.664 104.976,6.664 C111.312032,6.664 116.351981,8.19998464 120.096,11.272 C122.208011,13.0000086 123.264,14.8239904 123.264,16.744 C123.264,17.0320014 123.216,17.4639971 123.12,18.04 L123.12,19.336 C123.12,20.2000043 123.263999,20.9679966 123.552,21.64 L152.064,90.76 L184.032,17.32 C184.416002,16.4559957 184.608,15.4480058 184.608,14.296 C184.608,13.9119981 184.56,13.3360038 184.464,12.568 L184.464,10.84 C184.464,8.63198896 185.47199,6.76000768 187.488,5.224 C189.120008,3.97599376 191.279987,3.352 193.968,3.352 C198.096021,3.352 202.103981,4.59998752 205.992,7.096 C209.880019,9.59201248 211.776,12.4239842 211.68,15.592 C211.584,17.1280077 210.864007,18.399995 209.52,19.408 C208.175993,20.416005 207.552,21.3519957 207.648,22.216 L213.696,107.176 C213.792,108.136005 214.559993,109.791988 216,112.144 C217.440007,114.496012 218.16,116.391993 218.16,117.832 C218.16,118.792005 217.824003,119.751995 217.152,120.712 Z" id="path-5"></path>
        <filter x="-1.2%" y="-1.2%" width="102.4%" height="102.4%" filterUnits="objectBoundingBox" id="filter-6">
            <feMorphology radius="0.5" operator="dilate" in="SourceAlpha" result="shadowSpreadOuter1"></feMorphology>
            <feOffset dx="0" dy="0" in="shadowSpreadOuter1" result="shadowOffsetOuter1"></feOffset>
            <feColorMatrix values="0 0 0 0 0   0 0 0 0 0   0 0 0 0 0  0 0 0 0.5 0" type="matrix" in="shadowOffsetOuter1"></feColorMatrix>
        </filter>
        <path d="M86.112,19.048 C85.1519952,20.4880072 83.1600151,21.6399957 80.136,22.504 C77.1119849,23.3680043 75.1680043,24.5199928 74.304,25.96 L27.36,102.856 L52.704,102.856 C54.0480067,102.856 55.6319909,102.064008 57.456,100.48 C59.2800091,98.8959921 61.0559914,98.1519995 62.784,98.248 C67.0080211,98.5360014 70.5119861,100.119986 73.296,103 C76.0800139,105.880014 77.472,109.047983 77.472,112.504 C77.472,116.44002 75.7440173,119.511989 72.288,121.72 C71.4239957,122.296003 70.4640053,122.584 69.408,122.584 C68.2559942,122.584 66.3120137,122.128005 63.576,121.216 C60.8399863,120.303995 58.6560082,119.848 57.024,119.848 L19.008,119.848 C17.9519947,119.848 16.4160101,120.255996 14.4,121.072 C12.3839899,121.888004 10.9440043,122.200001 10.08,122.008 C7.10398512,121.431997 4.60801008,119.512016 2.592,116.248 C0.86399136,113.271985 0,110.056017 0,106.6 C0,104.775991 0.31199688,103.216006 0.936,101.92 C1.56000312,100.623994 3.09598776,99.5680041 5.544,98.752 C7.99201224,97.9359959 9.59999616,96.9040062 10.368,95.656 L53.856,23.656 L30.24,26.824 C29.2799952,26.9200005 27.9840082,27.3759959 26.352,28.192 C24.7199918,29.0080041 23.3760053,29.416 22.32,29.416 C21.3599952,29.416 20.2560062,29.1280029 19.008,28.552 C14.6879784,26.4399894 12.528,22.3120307 12.528,16.168 C12.528,13.1919851 13.1999933,11.0320067 14.544,9.688 C15.8880067,8.34399328 17.4239914,7.672 19.152,7.672 C19.8240034,7.672 21.1199904,7.86399808 23.04,8.248 C24.9600096,8.63200192 26.4959942,8.77600048 27.648,8.68 L66.528,5.224 C67.6800058,5.12799952 69.0719918,4.3600072 70.704,2.92 C72.3360082,1.4799928 73.8239933,0.80799952 75.168,0.904 C77.568012,1.09600096 80.1359863,2.91998272 82.872,6.376 C85.6080137,9.83201728 86.976,13.0479851 86.976,16.024 C86.976,17.1760058 86.6880029,18.1839957 86.112,19.048 Z" id="path-7"></path>
        <filter x="-1.7%" y="-1.2%" width="103.4%" height="102.5%" filterUnits="objectBoundingBox" id="filter-8">
            <feMorphology radius="0.5" operator="dilate" in="SourceAlpha" result="shadowSpreadOuter1"></feMorphology>
            <feOffset dx="0" dy="0" in="shadowSpreadOuter1" result="shadowOffsetOuter1"></feOffset>
            <feColorMatrix values="0 0 0 0 0   0 0 0 0 0   0 0 0 0 0  0 0 0 0.5 0" type="matrix" in="shadowOffsetOuter1"></feColorMatrix>
        </filter>
    </defs>
    <g id="Page-1" stroke="none" stroke-width="1" fill="none" fill-rule="evenodd">
        <g id="Group" transform="translate(1.000000, 1.000000)">
            <g id="ZMZMUSIC">
                <use fill="black" fill-opacity="1" filter="url(#filter-2)" xlink:href="#path-1"></use>
                <use fill="#000000" fill-rule="evenodd" xlink:href="#path-1"></use>
            </g>
            <g id="Path">
                <use fill="black" fill-opacity="1" filter="url(#filter-4)" xlink:href="#path-3"></use>
                <use fill="#FFEC00" fill-rule="evenodd" xlink:href="#path-3"></use>
            </g>
            <g id="Path">
                <use fill="black" fill-opacity="1" filter="url(#filter-6)" xlink:href="#path-5"></use>
                <use fill="#4A90E2" fill-rule="evenodd" xlink:href="#path-5"></use>
            </g>
            <g id="Path">
                <use fill="black" fill-opacity="1" filter="url(#filter-8)" xlink:href="#path-7"></use>
                <use fill="#A61123" fill-rule="evenodd" xlink:href="#path-7"></use>
            </g>
        </g>
    </g>
</svg>