<?xml version="1.0" encoding="UTF-8"?>
<svg width="24px" height="20px" viewBox="0 0 24 20" version="1.1" xmlns="http://www.w3.org/2000/svg" xmlns:xlink="http://www.w3.org/1999/xlink">
    <!-- Generator: Sketch 49 (51002) - http://www.bohemiancoding.com/sketch -->
    <title>MailIcon</title>
    <desc>Created with Sketch.</desc>
    <defs></defs>
    <g id="Page-1" stroke="none" stroke-width="1" fill="none" fill-rule="evenodd">
        <g id="Desktop-HD" transform="translate(-1266.000000, -43.000000)" fill="#4B4B4B" fill-rule="nonzero">
            <g id="Header">
                <g id="Contact" transform="translate(1265.000000, 39.000000)">
                    <g id="LinkWithIcon-email">
                        <g id="LinkIcon">
                            <g id="MailIcon" transform="translate(0.000000, 3.000000)">
                                <path d="M22.75,1 L3.25,1 C2.0125,1 1,2.0125 1,3.25 L1,18.25 C1,19.4875 2.0125,20.5 3.25,20.5 L22.75,20.5 C23.9875,20.5 25,19.4875 25,18.25 L25,3.25 C25,2.0125 23.9875,1 22.75,1 Z M10.3454688,10.8993437 L4,15.842125 L4,4.08489062 L10.3454688,10.8993437 Z M5.13390625,4 L20.8660938,4 L13,9.90625 L5.13390625,4 Z M10.5926875,11.1647969 L13,13.75 L15.4072656,11.1647969 L20.342125,17.5 L5.657875,17.5 L10.5926875,11.1647969 Z M15.6545312,10.8993437 L22,4.08489062 L22,15.842125 L15.6545312,10.8993437 Z"></path>
                            </g>
                        </g>
                    </g>
                </g>
            </g>
        </g>
    </g>
</svg>